<?xml version="1.0" encoding="UTF-8"?>
<svg xmlns="http://www.w3.org/2000/svg" width="320" height="329" viewBox="0 0 320 329" role="img" aria-label="Swapan Manna ASCII portrait">
  <defs>
    <linearGradient id="bg" x1="0" y1="0" x2="0.9" y2="1">
      <stop offset="0%" stop-color="#0c0814"/>
      <stop offset="55%" stop-color="#15102a"/>
      <stop offset="100%" stop-color="#1c1020"/>
    </linearGradient>
    <radialGradient id="halo" cx="50%" cy="58%" r="55%">
      <stop offset="0%" stop-color="#F97316" stop-opacity="0.18"/>
      <stop offset="45%" stop-color="#8B5CF6" stop-opacity="0.12"/>
      <stop offset="100%" stop-color="#000" stop-opacity="0"/>
    </radialGradient>
  </defs>
  <rect width="100%" height="100%" rx="14" fill="url(#bg)"/>
  <rect width="100%" height="100%" rx="14" fill="url(#halo)"/>
  <g font-family="ui-monospace, SFMono-Regular, Menlo, Monaco, Consolas, monospace" font-size="10" xml:space="preserve">
    <text x="10.0" y="22.2" fill="#3D3460">..................................................</text>
    <text x="10.0" y="34.4" fill="#3D3460">..................................................</text>
    <text x="10.0" y="46.6" fill="#3D3460">....................</text>
    <text x="130.0" y="46.6" fill="#C4B5FD">=</text>
    <text x="136.0" y="46.6" fill="#8B5CF6">#</text>
    <text x="142.0" y="46.6" fill="#6D28D9">%</text>
    <text x="148.0" y="46.6" fill="#8B5CF6">#####</text>
    <text x="178.0" y="46.6" fill="#FDBA74">*</text>
    <text x="184.0" y="46.6" fill="#C4B5FD">=</text>
    <text x="190.0" y="46.6" fill="#3D3460">....................</text>
    <text x="10.0" y="58.8" fill="#3D3460">..................</text>
    <text x="118.0" y="58.8" fill="#C4B5FD">:</text>
    <text x="124.0" y="58.8" fill="#6D28D9">%</text>
    <text x="130.0" y="58.8" fill="#FDBA74">*</text>
    <text x="136.0" y="58.8" fill="#C4B5FD">=-::-:::-</text>
    <text x="190.0" y="58.8" fill="#FDBA74">*</text>
    <text x="196.0" y="58.8" fill="#C4B5FD">+</text>
    <text x="202.0" y="58.8" fill="#3D3460">..................</text>
    <text x="10.0" y="71.0" fill="#3D3460">.................</text>
    <text x="112.0" y="71.0" fill="#C4B5FD">-</text>
    <text x="118.0" y="71.0" fill="#6D28D9">%</text>
    <text x="124.0" y="71.0" fill="#FDBA74">*</text>
    <text x="130.0" y="71.0" fill="#C4B5FD">=--:::::::-</text>
    <text x="196.0" y="71.0" fill="#FDBA74">*</text>
    <text x="202.0" y="71.0" fill="#C4B5FD">:</text>
    <text x="208.0" y="71.0" fill="#3D3460">.................</text>
    <text x="10.0" y="83.2" fill="#3D3460">.................</text>
    <text x="112.0" y="83.2" fill="#C4B5FD">:</text>
    <text x="118.0" y="83.2" fill="#FDBA74">*</text>
    <text x="124.0" y="83.2" fill="#C4B5FD">-=+=-::-=--:=</text>
    <text x="202.0" y="83.2" fill="#3D3460">..................</text>
    <text x="10.0" y="95.4" fill="#3D3460">..................</text>
    <text x="118.0" y="95.4" fill="#C4B5FD">=-</text>
    <text x="130.0" y="95.4" fill="#FDBA74">*</text>
    <text x="136.0" y="95.4" fill="#6D28D9">%</text>
    <text x="142.0" y="95.4" fill="#8B5CF6">#</text>
    <text x="148.0" y="95.4" fill="#C4B5FD">+-:+</text>
    <text x="172.0" y="95.4" fill="#8B5CF6">##</text>
    <text x="184.0" y="95.4" fill="#C4B5FD">=--</text>
    <text x="202.0" y="95.4" fill="#3D3460">..................</text>
    <text x="10.0" y="107.6" fill="#3D3460">..................</text>
    <text x="118.0" y="107.6" fill="#C4B5FD">--:::-:::::</text>
    <text x="184.0" y="107.6" fill="#3D3460">.</text>
    <text x="190.0" y="107.6" fill="#C4B5FD">::</text>
    <text x="202.0" y="107.6" fill="#3D3460">..................</text>
    <text x="10.0" y="119.8" fill="#3D3460">..................</text>
    <text x="118.0" y="119.8" fill="#C4B5FD">--</text>
    <text x="130.0" y="119.8" fill="#F97316">===+++</text>
    <text x="166.0" y="119.8" fill="#C4B5FD">-:</text>
    <text x="178.0" y="119.8" fill="#F97316">=</text>
    <text x="184.0" y="119.8" fill="#C4B5FD">--</text>
    <text x="196.0" y="119.8" fill="#F97316">=</text>
    <text x="202.0" y="119.8" fill="#3D3460">..................</text>
    <text x="10.0" y="132.0" fill="#3D3460">...................</text>
    <text x="124.0" y="132.0" fill="#F97316">=++</text>
    <text x="142.0" y="132.0" fill="#FDBA74">****</text>
    <text x="166.0" y="132.0" fill="#F97316">=====</text>
    <text x="196.0" y="132.0" fill="#3D3460">...................</text>
    <text x="10.0" y="144.2" fill="#3D3460">....................</text>
    <text x="130.0" y="144.2" fill="#F97316">=</text>
    <text x="136.0" y="144.2" fill="#8B5CF6">#</text>
    <text x="142.0" y="144.2" fill="#FDBA74">*</text>
    <text x="148.0" y="144.2" fill="#F97316">=</text>
    <text x="154.0" y="144.2" fill="#C4B5FD">-::-</text>
    <text x="178.0" y="144.2" fill="#FDBA74">*</text>
    <text x="184.0" y="144.2" fill="#C4B5FD">-</text>
    <text x="190.0" y="144.2" fill="#3D3460">....................</text>
    <text x="10.0" y="156.4" fill="#3D3460">..................</text>
    <text x="118.0" y="156.4" fill="#F97316">=</text>
    <text x="124.0" y="156.4" fill="#6D28D9">%</text>
    <text x="130.0" y="156.4" fill="#FDBA74">*</text>
    <text x="136.0" y="156.4" fill="#C4B5FD">-</text>
    <text x="142.0" y="156.4" fill="#F97316">=#</text>
    <text x="154.0" y="156.4" fill="#6D28D9">%%</text>
    <text x="166.0" y="156.4" fill="#FDBA74">*</text>
    <text x="172.0" y="156.4" fill="#F97316">+</text>
    <text x="178.0" y="156.4" fill="#C4B5FD">-</text>
    <text x="184.0" y="156.4" fill="#3D3460">.....................</text>
    <text x="10.0" y="168.6" fill="#4C3F75">............</text>
    <text x="82.0" y="168.6" fill="#F97316">==#</text>
    <text x="100.0" y="168.6" fill="#6D28D9">%%%%%%</text>
    <text x="136.0" y="168.6" fill="#F97316">=</text>
    <text x="142.0" y="168.6" fill="#C4B5FD">:::</text>
    <text x="160.0" y="168.6" fill="#F97316">#=</text>
    <text x="172.0" y="168.6" fill="#C4B5FD">:</text>
    <text x="178.0" y="168.6" fill="#4C3F75">.</text>
    <text x="184.0" y="168.6" fill="#F97316">+</text>
    <text x="190.0" y="168.6" fill="#6D28D9">%</text>
    <text x="196.0" y="168.6" fill="#F97316">#</text>
    <text x="202.0" y="168.6" fill="#6D28D9">%%%</text>
    <text x="220.0" y="168.6" fill="#F97316">#+=</text>
    <text x="238.0" y="168.6" fill="#FDBA74">-</text>
    <text x="244.0" y="168.6" fill="#4C3F75">...........</text>
    <text x="10.0" y="180.8" fill="#4C3F75">.......</text>
    <text x="52.0" y="180.8" fill="#C4B5FD">:</text>
    <text x="58.0" y="180.8" fill="#6D28D9">%%%%%%%%%@@%%</text>
    <text x="136.0" y="180.8" fill="#FDBA74">*--</text>
    <text x="154.0" y="180.8" fill="#F97316">=</text>
    <text x="160.0" y="180.8" fill="#6D28D9">%</text>
    <text x="166.0" y="180.8" fill="#F97316">##</text>
    <text x="178.0" y="180.8" fill="#C4B5FD">:</text>
    <text x="184.0" y="180.8" fill="#FDBA74">-</text>
    <text x="190.0" y="180.8" fill="#F97316">=</text>
    <text x="196.0" y="180.8" fill="#6D28D9">%%%%%%%%</text>
    <text x="244.0" y="180.8" fill="#FDBA74">*</text>
    <text x="250.0" y="180.8" fill="#4C3F75">..........</text>
    <text x="10.0" y="193.0" fill="#4C3F75">.......</text>
    <text x="52.0" y="193.0" fill="#FDBA74">*</text>
    <text x="58.0" y="193.0" fill="#6D28D9">%%%%%%%%%</text>
    <text x="112.0" y="193.0" fill="#F97316">%%%%%</text>
    <text x="142.0" y="193.0" fill="#FDBA74">-::</text>
    <text x="160.0" y="193.0" fill="#F97316">%%</text>
    <text x="172.0" y="193.0" fill="#FDBA74">-::-</text>
    <text x="196.0" y="193.0" fill="#F97316">%%%</text>
    <text x="214.0" y="193.0" fill="#6D28D9">%%%</text>
    <text x="232.0" y="193.0" fill="#F97316">###</text>
    <text x="250.0" y="193.0" fill="#FDBA74">-</text>
    <text x="256.0" y="193.0" fill="#4C3F75">.........</text>
    <text x="10.0" y="205.2" fill="#4C3F75">......</text>
    <text x="46.0" y="205.2" fill="#FDBA74">-</text>
    <text x="52.0" y="205.2" fill="#F97316">#</text>
    <text x="58.0" y="205.2" fill="#6D28D9">%%%%%%%%%</text>
    <text x="112.0" y="205.2" fill="#F97316">%%%%%#</text>
    <text x="148.0" y="205.2" fill="#FDBA74">::</text>
    <text x="160.0" y="205.2" fill="#F97316">%#</text>
    <text x="172.0" y="205.2" fill="#FDBA74">*</text>
    <text x="178.0" y="205.2" fill="#4C3F75">.</text>
    <text x="184.0" y="205.2" fill="#FDBA74">:-</text>
    <text x="196.0" y="205.2" fill="#F97316">%%%</text>
    <text x="214.0" y="205.2" fill="#6D28D9">%</text>
    <text x="220.0" y="205.2" fill="#F97316">######</text>
    <text x="256.0" y="205.2" fill="#4C3F75">.........</text>
    <text x="10.0" y="217.4" fill="#4C3F75">......</text>
    <text x="46.0" y="217.4" fill="#6D28D9">%%%%%%%%%%%</text>
    <text x="112.0" y="217.4" fill="#F97316">%%%%%#</text>
    <text x="148.0" y="217.4" fill="#FDBA74">-:</text>
    <text x="160.0" y="217.4" fill="#F97316">=##</text>
    <text x="178.0" y="217.4" fill="#FDBA74">:::</text>
    <text x="196.0" y="217.4" fill="#F97316">+%%</text>
    <text x="214.0" y="217.4" fill="#6D28D9">%</text>
    <text x="220.0" y="217.4" fill="#F97316">####</text>
    <text x="244.0" y="217.4" fill="#6D28D9">%%</text>
    <text x="256.0" y="217.4" fill="#F97316">#</text>
    <text x="262.0" y="217.4" fill="#4C3F75">........</text>
    <text x="10.0" y="229.6" fill="#4C3F75">.....</text>
    <text x="40.0" y="229.6" fill="#6D28D9">%%%%%%%%%%%%</text>
    <text x="112.0" y="229.6" fill="#F97316">%%%%%%+</text>
    <text x="154.0" y="229.6" fill="#FDBA74">:-</text>
    <text x="166.0" y="229.6" fill="#F97316">##</text>
    <text x="178.0" y="229.6" fill="#FDBA74">*:-</text>
    <text x="196.0" y="229.6" fill="#F97316">+#%#####</text>
    <text x="244.0" y="229.6" fill="#6D28D9">%%%</text>
    <text x="262.0" y="229.6" fill="#4C3F75">........</text>
    <text x="10.0" y="241.8" fill="#4C3F75">....</text>
    <text x="34.0" y="241.8" fill="#F97316">+</text>
    <text x="40.0" y="241.8" fill="#6D28D9">%%</text>
    <text x="52.0" y="241.8" fill="#EA580C">@@</text>
    <text x="64.0" y="241.8" fill="#6D28D9">%</text>
    <text x="70.0" y="241.8" fill="#EA580C">@</text>
    <text x="76.0" y="241.8" fill="#6D28D9">%%%%%%</text>
    <text x="112.0" y="241.8" fill="#F97316">%%%%%%%</text>
    <text x="154.0" y="241.8" fill="#FDBA74">--</text>
    <text x="166.0" y="241.8" fill="#F97316">##</text>
    <text x="178.0" y="241.8" fill="#FDBA74">*:-*</text>
    <text x="202.0" y="241.8" fill="#F97316">%%</text>
    <text x="214.0" y="241.8" fill="#6D28D9">%</text>
    <text x="220.0" y="241.8" fill="#F97316">###</text>
    <text x="238.0" y="241.8" fill="#6D28D9">%</text>
    <text x="244.0" y="241.8" fill="#EA580C">@</text>
    <text x="250.0" y="241.8" fill="#6D28D9">%%</text>
    <text x="262.0" y="241.8" fill="#4C3F75">........</text>
    <text x="10.0" y="254.0" fill="#4C3F75">...</text>
    <text x="28.0" y="254.0" fill="#C4B5FD">:</text>
    <text x="34.0" y="254.0" fill="#FDBA74">*</text>
    <text x="40.0" y="254.0" fill="#EA580C">@@%@%@@@@@%%%%%%%%%</text>
    <text x="154.0" y="254.0" fill="#F97316">+=##</text>
    <text x="178.0" y="254.0" fill="#FDBA74">*::</text>
    <text x="196.0" y="254.0" fill="#F97316">+</text>
    <text x="202.0" y="254.0" fill="#EA580C">%%</text>
    <text x="214.0" y="254.0" fill="#F97316">####</text>
    <text x="238.0" y="254.0" fill="#EA580C">@@@@</text>
    <text x="262.0" y="254.0" fill="#FDBA74">*</text>
    <text x="268.0" y="254.0" fill="#4C3F75">.......</text>
    <text x="10.0" y="266.2" fill="#C4B5FD">:</text>
    <text x="16.0" y="266.2" fill="#4C3F75">..</text>
    <text x="28.0" y="266.2" fill="#EA580C">%@%%@%@@@@@@%%%%%%%%%</text>
    <text x="154.0" y="266.2" fill="#F97316">#=###=</text>
    <text x="190.0" y="266.2" fill="#FDBA74">-</text>
    <text x="196.0" y="266.2" fill="#F97316">=#</text>
    <text x="208.0" y="266.2" fill="#EA580C">%</text>
    <text x="214.0" y="266.2" fill="#F97316">###</text>
    <text x="232.0" y="266.2" fill="#EA580C">%@@@%%</text>
    <text x="268.0" y="266.2" fill="#F97316">=</text>
    <text x="274.0" y="266.2" fill="#4C3F75">......</text>
    <text x="10.0" y="278.4" fill="#4C3F75">..</text>
    <text x="22.0" y="278.4" fill="#8B5CF6">#</text>
    <text x="28.0" y="278.4" fill="#EA580C">%@@%%@@@%</text>
    <text x="82.0" y="278.4" fill="#4C3F75">.</text>
    <text x="88.0" y="278.4" fill="#EA580C">%@@@%%%%%%%%</text>
    <text x="160.0" y="278.4" fill="#F97316">#</text>
    <text x="166.0" y="278.4" fill="#EA580C">%</text>
    <text x="172.0" y="278.4" fill="#F97316">##=</text>
    <text x="190.0" y="278.4" fill="#C4B5FD">:</text>
    <text x="196.0" y="278.4" fill="#FDBA74">-</text>
    <text x="202.0" y="278.4" fill="#F97316">#</text>
    <text x="208.0" y="278.4" fill="#EA580C">%%%%%@@@</text>
    <text x="256.0" y="278.4" fill="#F97316">#</text>
    <text x="262.0" y="278.4" fill="#EA580C">%@</text>
    <text x="274.0" y="278.4" fill="#4C3F75">......</text>
    <text x="10.0" y="290.6" fill="#C4B5FD">:</text>
    <text x="16.0" y="290.6" fill="#FDBA74">-</text>
    <text x="22.0" y="290.6" fill="#EA580C">%@@%%%@@@</text>
    <text x="76.0" y="290.6" fill="#4C3F75">...</text>
    <text x="94.0" y="290.6" fill="#EA580C">@@@@@%%%%%%</text>
    <text x="160.0" y="290.6" fill="#F97316">#</text>
    <text x="166.0" y="290.6" fill="#EA580C">%</text>
    <text x="172.0" y="290.6" fill="#F97316">##=</text>
    <text x="190.0" y="290.6" fill="#C4B5FD">:</text>
    <text x="196.0" y="290.6" fill="#FDBA74">-</text>
    <text x="202.0" y="290.6" fill="#F97316">#</text>
    <text x="208.0" y="290.6" fill="#EA580C">%%%</text>
    <text x="226.0" y="290.6" fill="#F97316">#</text>
    <text x="232.0" y="290.6" fill="#C4B5FD">:</text>
    <text x="238.0" y="290.6" fill="#EA580C">%@%%%%</text>
    <text x="274.0" y="290.6" fill="#F97316">+</text>
    <text x="280.0" y="290.6" fill="#4C3F75">.....</text>
    <text x="10.0" y="302.8" fill="#C4B5FD">:</text>
    <text x="16.0" y="302.8" fill="#F97316">+</text>
    <text x="22.0" y="302.8" fill="#EA580C">@%%@@@@</text>
    <text x="64.0" y="302.8" fill="#FDBA74">*</text>
    <text x="70.0" y="302.8" fill="#4C3F75">..</text>
    <text x="82.0" y="302.8" fill="#C4B5FD">::</text>
    <text x="94.0" y="302.8" fill="#EA580C">@@@@@@@%%%%%</text>
    <text x="166.0" y="302.8" fill="#F97316">#</text>
    <text x="172.0" y="302.8" fill="#EA580C">%%</text>
    <text x="184.0" y="302.8" fill="#F97316">+</text>
    <text x="190.0" y="302.8" fill="#FDBA74">--</text>
    <text x="202.0" y="302.8" fill="#F97316">#</text>
    <text x="208.0" y="302.8" fill="#EA580C">%</text>
    <text x="214.0" y="302.8" fill="#F97316">#</text>
    <text x="220.0" y="302.8" fill="#EA580C">%</text>
    <text x="226.0" y="302.8" fill="#F97316">#</text>
    <text x="232.0" y="302.8" fill="#C4B5FD">:</text>
    <text x="238.0" y="302.8" fill="#EA580C">%@@%%</text>
    <text x="268.0" y="302.8" fill="#F97316">#</text>
    <text x="274.0" y="302.8" fill="#C4B5FD">:</text>
    <text x="280.0" y="302.8" fill="#4C3F75">.....</text>
    <text x="10.0" y="315.0" fill="#FDBA74">-</text>
    <text x="16.0" y="315.0" fill="#EA580C">%@@@@@@@</text>
    <text x="64.0" y="315.0" fill="#FDBA74">*</text>
    <text x="70.0" y="315.0" fill="#C4B5FD">::::</text>
    <text x="94.0" y="315.0" fill="#EA580C">@@@@@%@@@%%%@%%%</text>
    <text x="190.0" y="315.0" fill="#FDBA74">-</text>
    <text x="196.0" y="315.0" fill="#F97316">=</text>
    <text x="202.0" y="315.0" fill="#FDBA74">*</text>
    <text x="208.0" y="315.0" fill="#F97316">#</text>
    <text x="214.0" y="315.0" fill="#EA580C">%%</text>
    <text x="226.0" y="315.0" fill="#F97316">#</text>
    <text x="232.0" y="315.0" fill="#4C3F75">.</text>
    <text x="238.0" y="315.0" fill="#EA580C">%@%%</text>
    <text x="262.0" y="315.0" fill="#F97316">##</text>
    <text x="274.0" y="315.0" fill="#4C3F75">......</text>
  </g>
</svg>
